<svg version="1.1" id="Layer_1" xmlns="http://www.w3.org/2000/svg" xmlns:xlink="http://www.w3.org/1999/xlink" x="0px" y="0px"
	 width="100%" viewBox="0 0 512 512" enable-background="new 0 0 512 512" xml:space="preserve">

<path fill="#1ED2E5" opacity="1.000000" stroke="none" 
	d="
M328.064423,317.818665 
	C336.805115,326.468445 345.724579,334.947998 354.199982,343.850342 
	C357.674866,347.500244 361.147461,349.038757 366.268341,349.006378 
	C380.779938,348.914673 392.010376,360.152039 391.959656,373.957245 
	C391.920959,384.479401 385.466766,393.856812 375.426666,397.978241 
	C365.825378,401.919495 355.136444,399.945129 347.891235,392.300659 
	C345.187103,389.447449 342.399109,388.651794 338.705261,388.656952 
	C297.440643,388.714447 256.175934,388.654633 214.560318,388.189209 
	C215.394485,384.198792 217.475418,381.668488 221.448349,381.096039 
	C224.517380,380.653778 224.959976,378.877319 224.250778,376.035492 
	C223.510010,373.067230 223.392990,369.943329 223.458710,366.768188 
	C261.079376,366.622375 298.244659,366.614044 335.409668,366.515686 
	C337.267090,366.510773 339.122498,365.725739 340.978821,365.303925 
	C339.998260,363.530029 339.343079,361.442596 337.984711,360.032715 
	C328.627014,350.320374 319.122437,340.749512 310.008667,330.973450 
	C312.330444,329.981415 314.612671,329.530212 316.227295,328.242126 
	C320.332336,324.967346 324.138580,321.318054 328.064423,317.818665 
z"/>
<path fill="#2AE2DF" opacity="1.000000" stroke="none" 
	d="
M332.997192,129.058899 
	C350.325134,128.999390 367.653046,128.920868 384.981049,128.892883 
	C389.672272,128.885300 392.898712,131.371780 394.715637,135.494415 
	C396.772003,140.160355 395.453888,144.253082 391.915955,147.764481 
	C375.474060,164.082932 359.042603,180.411942 341.938049,196.895966 
	C340.177612,198.365417 339.086578,199.676086 337.995544,200.986755 
	C334.861267,204.234253 331.726990,207.481766 327.926392,210.889969 
	C326.166382,212.345093 325.072693,213.639526 323.979034,214.933960 
	C318.177460,220.862045 312.375885,226.790146 305.902496,232.879883 
	C303.349182,234.004883 301.283295,234.722046 299.615753,235.971039 
	C287.479523,245.061020 278.657104,257.301331 268.701843,268.482330 
	C266.323059,271.153992 262.795044,272.846039 259.683777,274.811676 
	C255.093353,277.711731 250.603363,280.884735 245.707657,283.160858 
	C238.393173,286.561584 230.749756,289.251251 223.286041,292.339539 
	C222.470642,292.676910 221.489929,293.548279 221.308594,294.337952 
	C219.757935,301.089478 213.198654,300.524811 208.713303,304.081085 
	C208.334183,302.023560 208.129990,300.915375 207.925797,299.807190 
	C223.376846,284.223480 238.842682,268.654358 254.275848,253.052948 
	C285.049286,221.944031 315.804901,190.817535 346.566711,159.697128 
	C347.268341,158.987335 348.125122,158.361572 348.609924,157.523331 
	C349.307556,156.317139 349.729919,154.951706 350.269836,153.654251 
	C348.973663,153.138977 347.685730,152.202972 346.380005,152.177490 
	C338.562683,152.024902 330.741272,152.081894 322.553223,151.648544 
	C324.277374,149.740479 326.660156,148.528946 328.397217,146.703110 
	C331.394775,143.552368 334.504730,140.286087 336.467957,136.498383 
	C337.126678,135.227463 334.429321,132.223419 333.283081,130.002701 
	C333.134796,129.715439 333.089935,129.374817 332.997192,129.058899 
z"/>
<path fill="#27DEDF" opacity="1.000000" stroke="none" 
	d="
M207.615295,299.944733 
	C208.129990,300.915375 208.334183,302.023560 208.713303,304.081085 
	C213.198654,300.524811 219.757935,301.089478 221.308594,294.337952 
	C221.489929,293.548279 222.470642,292.676910 223.286041,292.339539 
	C230.749756,289.251251 238.393173,286.561584 245.707657,283.160858 
	C250.603363,280.884735 255.093353,277.711731 259.683777,274.811676 
	C262.795044,272.846039 266.323059,271.153992 268.701843,268.482330 
	C278.657104,257.301331 287.479523,245.061020 299.615753,235.971039 
	C301.283295,234.722046 303.349182,234.004883 305.595367,233.014130 
	C297.597961,241.508240 289.227356,250.021454 280.877075,258.554535 
	C276.223053,263.310455 276.279388,265.313049 281.069427,270.110199 
	C283.415741,272.459991 285.731323,274.840515 287.949280,277.831177 
	C287.579620,279.222687 287.181183,279.972992 287.085144,280.760223 
	C286.172089,288.246674 283.147430,291.181854 275.562714,292.051819 
	C274.318268,292.194580 273.129303,292.820740 271.604919,293.081848 
	C270.346405,292.009918 269.390442,291.086823 268.450104,290.148071 
	C260.688202,282.398956 257.199036,282.359314 249.437775,290.063965 
	C225.737732,313.591034 202.047211,337.127747 178.393875,360.701721 
	C177.154663,361.936768 176.293015,363.550629 174.900146,365.059204 
	C172.473755,366.479126 170.287003,367.680847 168.352753,369.203400 
	C161.483871,374.610382 154.680557,380.101685 147.912094,385.634064 
	C147.085114,386.309998 146.620071,387.428741 145.987305,388.342285 
	C143.677109,388.412811 141.325424,388.795258 139.064606,388.494507 
	C132.623520,387.637726 129.400803,381.095032 132.567383,375.399628 
	C133.437210,373.835114 134.725449,372.454315 136.006943,371.174744 
	C159.756134,347.460480 183.533417,323.774323 207.615295,299.944733 
z"/>
<path fill="#34E8D8" opacity="1.000000" stroke="none" 
	d="
M210.047974,194.656128 
	C221.540207,182.861557 233.067169,171.100388 244.483047,159.232391 
	C246.000351,157.654999 246.953430,155.534866 248.167831,153.666092 
	C245.905182,153.144196 243.651306,152.578430 241.375168,152.124084 
	C240.572678,151.963882 239.715759,152.076294 238.527374,151.645096 
	C240.362534,149.357880 242.446640,147.342560 244.766754,145.650879 
	C250.470062,141.492371 255.499634,136.998764 254.998383,129.050293 
	C267.024384,128.993347 279.050354,128.936386 291.565796,129.337372 
	C291.557922,132.579590 291.914307,136.002762 290.400116,138.026031 
	C286.181732,143.662750 280.944946,148.528076 276.584930,154.071365 
	C273.698090,157.741699 271.628998,162.055222 269.193817,166.080795 
	C268.406158,167.292892 267.802460,168.688370 266.803772,169.690048 
	C246.468140,190.086411 226.087341,210.437698 205.208130,230.649658 
	C204.837296,229.247284 204.742447,227.912430 205.147461,226.752060 
	C208.167343,218.100204 210.909454,209.321671 214.507843,200.911987 
	C216.868652,195.394577 213.894897,195.043915 210.047974,194.656128 
z"/>
<path fill="#38E9D5" opacity="1.000000" stroke="none" 
	d="
M209.774750,194.789429 
	C213.894897,195.043915 216.868652,195.394577 214.507843,200.911987 
	C210.909454,209.321671 208.167343,218.100204 205.147461,226.752060 
	C204.742447,227.912430 204.837296,229.247284 204.901398,230.777664 
	C204.714111,231.581970 204.426819,232.247879 203.922287,232.616180 
	C199.734238,235.673492 198.607147,239.391891 198.788467,244.824539 
	C199.341721,261.401428 183.804672,273.214996 167.377151,268.619202 
	C167.647827,265.701904 167.906509,263.151733 169.011444,261.045502 
	C174.684525,250.231659 180.664932,239.578964 186.332687,228.762405 
	C187.931808,225.710571 189.600906,222.199066 185.233307,219.658813 
	C193.322723,211.413452 201.412125,203.168091 209.774750,194.789429 
z"/>
<path fill="#22DBE6" opacity="1.000000" stroke="none" 
	d="
M146.441132,388.470032 
	C146.620071,387.428741 147.085114,386.309998 147.912094,385.634064 
	C154.680557,380.101685 161.483871,374.610382 168.352753,369.203400 
	C170.287003,367.680847 172.473755,366.479126 175.157318,365.321899 
	C177.652527,365.867889 179.531265,366.505707 181.418289,366.531250 
	C195.279037,366.718781 209.141418,366.783844 223.003296,366.887451 
	C223.392990,369.943329 223.510010,373.067230 224.250778,376.035492 
	C224.959976,378.877319 224.517380,380.653778 221.448349,381.096039 
	C217.475418,381.668488 215.394485,384.198792 214.109528,388.057251 
	C191.638062,388.440918 169.266510,388.519318 146.441132,388.470032 
z"/>
<path fill="#3AECD5" opacity="1.000000" stroke="none" 
	d="
M254.536331,128.967087 
	C255.499634,136.998764 250.470062,141.492371 244.766754,145.650879 
	C242.446640,147.342560 240.362534,149.357880 238.085052,151.552948 
	C221.527023,151.939957 205.054977,151.999954 188.227173,151.548508 
	C190.130569,147.641525 192.564331,144.346802 194.599518,140.821960 
	C196.610199,137.339539 198.218079,133.624542 200.183960,129.871201 
	C200.595093,129.527847 200.803940,129.305176 200.991760,129.062820 
	C202.068741,129.003418 203.145737,128.944016 204.798615,129.110077 
	C205.912933,129.245255 206.451324,129.154968 206.989731,129.064697 
	C208.067352,129.005692 209.144958,128.946686 210.798584,129.112930 
	C211.912918,129.249176 212.451263,129.160172 212.989609,129.071167 
	C226.684494,129.008728 240.379395,128.946289 254.536331,128.967087 
z"/>
<path fill="#23DAE4" opacity="1.000000" stroke="none" 
	d="
M271.914703,293.223450 
	C273.129303,292.820740 274.318268,292.194580 275.562714,292.051819 
	C283.147430,291.181854 286.172089,288.246674 287.085144,280.760223 
	C287.181183,279.972992 287.579620,279.222687 288.094849,278.139984 
	C301.502838,290.954559 314.653717,304.084381 327.934509,317.516418 
	C324.138580,321.318054 320.332336,324.967346 316.227295,328.242126 
	C314.612671,329.530212 312.330444,329.981415 309.716705,330.832336 
	C296.692352,318.308441 284.303528,305.765961 271.914703,293.223450 
z"/>
<path fill="#40EBD0" opacity="1.000000" stroke="none" 
	d="
M184.923309,219.833237 
	C189.600906,222.199066 187.931808,225.710571 186.332687,228.762405 
	C180.664932,239.578964 174.684525,250.231659 169.011444,261.045502 
	C167.906509,263.151733 167.647827,265.701904 166.997070,268.449951 
	C155.476501,265.476624 147.834076,254.039276 149.508163,242.681946 
	C151.338730,230.263092 160.943619,221.998352 173.440643,221.604904 
	C177.159210,221.487823 181.426224,224.114243 184.923309,219.833237 
z"/>
<path fill="#2FE6DC" opacity="1.000000" stroke="none" 
	d="
M269.503845,165.950073 
	C271.628998,162.055222 273.698090,157.741699 276.584930,154.071365 
	C280.944946,148.528076 286.181732,143.662750 290.400116,138.026031 
	C291.914307,136.002762 291.557922,132.579590 292.027802,129.421967 
	C305.357971,128.996826 318.715607,128.945053 332.535217,128.976089 
	C333.089935,129.374817 333.134796,129.715439 333.283081,130.002701 
	C334.429321,132.223419 337.126678,135.227463 336.467957,136.498383 
	C334.504730,140.286087 331.394775,143.552368 328.397217,146.703110 
	C326.660156,148.528946 324.277374,149.740479 322.092896,151.554520 
	C311.207001,151.955002 300.411011,152.186890 289.621185,152.019104 
	C285.810730,151.959824 283.100281,153.135101 280.519562,155.871124 
	C277.184235,159.407166 273.403107,162.522736 269.503845,165.950073 
z"/>
<path fill="#4CF3CA" opacity="1.000000" stroke="none" 
	d="
M161.166626,119.917648 
	C164.452545,122.560829 167.738464,125.204010 170.949005,128.487305 
	C168.925064,132.584930 166.810776,135.960861 165.060806,139.516129 
	C160.772919,148.227493 155.435104,156.572006 154.983658,166.711838 
	C148.342850,168.360657 142.136673,167.323120 135.965118,163.214645 
	C135.270172,162.547592 134.959412,162.362808 134.648666,162.178024 
	C134.648666,162.178024 134.768402,162.186295 134.810730,161.794952 
	C135.394562,158.338211 135.471848,155.096619 136.557068,152.237595 
	C141.554260,139.072174 148.239243,127.089005 161.166626,119.917648 
z"/>
<path fill="#43EFCF" opacity="1.000000" stroke="none" 
	d="
M155.341675,166.718475 
	C155.435104,156.572006 160.772919,148.227493 165.060806,139.516129 
	C166.810776,135.960861 168.925064,132.584930 171.052765,128.792313 
	C171.231934,128.457214 171.697906,128.605789 172.208679,129.005432 
	C181.813858,129.607254 190.908264,129.809418 200.002686,130.011581 
	C198.218079,133.624542 196.610199,137.339539 194.599518,140.821960 
	C192.564331,144.346802 190.130569,147.641525 187.805466,151.457092 
	C186.924500,151.951828 186.092163,152.172745 185.297134,152.078598 
	C177.643692,151.172302 171.318192,152.169662 166.710358,159.846191 
	C164.726425,163.151367 159.469620,164.491989 155.341675,166.718475 
z"/>
<path fill="#53F3C2" opacity="1.000000" stroke="none" 
	d="
M160.924316,119.636017 
	C148.239243,127.089005 141.554260,139.072174 136.557068,152.237595 
	C135.471848,155.096619 135.394562,158.338211 134.802734,161.854431 
	C124.284309,154.328003 121.350746,140.605804 127.742271,129.514267 
	C134.278732,118.171234 147.491486,114.095917 160.924316,119.636017 
z"/>
<path fill="#3FF0E1" opacity="1.000000" stroke="none" 
	d="
M200.183960,129.871201 
	C190.908264,129.809418 181.813858,129.607254 172.373032,129.186523 
	C181.373718,128.945282 190.720825,128.922623 200.529846,128.981384 
	C200.803940,129.305176 200.595093,129.527847 200.183960,129.871201 
z"/>
<path fill="#27DEDF" opacity="1.000000" stroke="none" 
	d="
M338.292664,200.869354 
	C339.086578,199.676086 340.177612,198.365417 341.629822,197.026215 
	C340.857239,198.249100 339.723480,199.500534 338.292664,200.869354 
z"/>
<path fill="#27DEDF" opacity="1.000000" stroke="none" 
	d="
M324.274414,214.817505 
	C325.072693,213.639526 326.166382,212.345093 327.618439,211.021378 
	C326.841156,212.228409 325.705475,213.464737 324.274414,214.817505 
z"/>
<path fill="#3FF0E1" opacity="1.000000" stroke="none" 
	d="
M212.663757,128.993164 
	C212.451263,129.160172 211.912918,129.249176 211.195145,129.203369 
	C211.456451,129.017426 211.897171,128.966309 212.663757,128.993164 
z"/>
<path fill="#3FF0E1" opacity="1.000000" stroke="none" 
	d="
M206.663742,128.986694 
	C206.451324,129.154968 205.912933,129.245255 205.194992,129.200348 
	C205.456223,129.013031 205.896988,128.960861 206.663742,128.986694 
z"/>
<path fill="#53F3C2" opacity="1.000000" stroke="none" 
	d="
M134.780182,162.436157 
	C134.959412,162.362808 135.270172,162.547592 135.769699,162.926895 
	C135.609558,162.979034 135.260635,162.836655 134.780182,162.436157 
z"/>
<path fill="#151717" opacity="1.000000" stroke="none" 
	d="
M271.604919,293.081879 
	C284.303528,305.765961 296.692352,318.308441 309.373138,330.992035 
	C319.122437,340.749512 328.627014,350.320374 337.984711,360.032715 
	C339.343079,361.442596 339.998260,363.530029 340.978821,365.303925 
	C339.122498,365.725739 337.267090,366.510773 335.409668,366.515686 
	C298.244659,366.614044 261.079376,366.622375 223.458710,366.768188 
	C209.141418,366.783844 195.279037,366.718781 181.418289,366.531250 
	C179.531265,366.505707 177.652527,365.867889 175.512772,365.250824 
	C176.293015,363.550629 177.154663,361.936768 178.393875,360.701721 
	C202.047211,337.127747 225.737732,313.591034 249.437775,290.063965 
	C257.199036,282.359314 260.688202,282.398956 268.450104,290.148071 
	C269.390442,291.086823 270.346405,292.009918 271.604919,293.081879 
z"/>
</svg>