<svg version="1.1" id="Layer_1" xmlns="http://www.w3.org/2000/svg" xmlns:xlink="http://www.w3.org/1999/xlink" x="0px" y="0px"
	 width="100%" viewBox="0 0 2000 600" enable-background="new 0 0 2000 600" xml:space="preserve">

<path fill="#FEFEFE" opacity="1.000000" stroke="none" 
	d="
M946.504456,390.874756 
	C945.876587,389.641632 945.540710,388.517670 945.539978,387.393524 
	C945.513367,344.903015 945.516174,302.412476 945.525269,259.921967 
	C945.525452,258.948486 945.641113,257.975006 945.721558,256.707703 
	C955.521667,256.707703 965.103699,256.707703 975.551025,256.707703 
	C975.551025,264.162628 975.551025,271.698364 975.551025,279.234100 
	C990.585815,247.150589 1037.935791,243.511703 1050.227661,281.542480 
	C1051.713623,278.902924 1052.910278,276.505890 1054.349487,274.264404 
	C1064.715210,258.119049 1085.739258,250.475021 1105.296875,255.684570 
	C1123.721680,260.592407 1135.621094,275.382782 1135.932495,295.784302 
	C1136.412964,327.267120 1136.059082,358.762665 1136.059082,390.628113 
	C1125.920654,390.628113 1115.704102,390.628113 1104.835205,390.628113 
	C1104.835205,389.042328 1104.835327,387.292175 1104.835205,385.542053 
	C1104.834351,359.214600 1104.857178,332.887115 1104.815430,306.559723 
	C1104.805298,300.147919 1104.186890,293.720764 1099.571045,288.785278 
	C1092.203491,280.907532 1082.883545,279.388245 1072.937012,282.255188 
	C1063.756958,284.901184 1058.619141,291.593262 1057.005371,300.893463 
	C1056.467773,303.990997 1056.364014,307.193695 1056.357788,310.348877 
	C1056.308105,335.343201 1056.330078,360.337677 1056.330078,385.332092 
	C1056.330078,387.136475 1056.330078,388.940857 1056.330078,390.826111 
	C1045.935059,390.826111 1035.978394,390.826111 1025.599854,390.826111 
	C1025.599854,388.847137 1025.599976,387.042267 1025.599854,385.237396 
	C1025.598877,358.576691 1025.390015,331.913849 1025.660400,305.255890 
	C1025.892456,282.377136 1003.674316,276.210938 989.533875,284.482941 
	C980.011658,290.053345 977.054504,299.169678 977.035645,309.558594 
	C976.989624,334.886169 977.018433,360.213928 977.017029,385.541595 
	C977.016907,387.180908 977.016907,388.820221 977.016907,390.983856 
	C966.823547,390.983856 956.888123,390.983856 946.504456,390.874756 
z"/>
<path fill="#A5F1CE" opacity="1.000000" stroke="none" 
	d="
M1197.026611,273.002380 
	C1197.026733,267.346954 1197.026733,262.190948 1197.026733,256.704926 
	C1207.356689,256.704926 1217.422852,256.704926 1227.899536,256.704926 
	C1227.899536,263.804932 1227.899536,270.722534 1227.899536,278.579590 
	C1229.244507,277.434174 1230.118164,277.015717 1230.490234,276.326447 
	C1247.091919,245.570435 1289.375244,250.346756 1307.432495,271.418701 
	C1319.185669,285.133942 1323.758179,301.287018 1324.434082,318.858551 
	C1325.096924,336.092560 1322.976074,352.793152 1313.872437,367.929474 
	C1301.601440,388.331604 1278.400024,397.957031 1255.867554,392.031464 
	C1243.813477,388.861511 1235.758545,380.792603 1228.865479,370.357574 
	C1228.865479,394.101227 1228.865479,417.844849 1228.865479,441.774445 
	C1217.953247,441.774445 1207.837402,441.774445 1197.026611,441.774445 
	C1197.026611,385.661224 1197.026611,329.581543 1197.026611,273.002380 
M1230.859253,344.476959 
	C1236.073608,359.664429 1246.167358,367.455994 1260.466064,367.331146 
	C1274.684937,367.206970 1284.793457,359.218933 1289.474609,343.789490 
	C1293.636841,330.070312 1293.555908,316.225800 1289.076782,302.554169 
	C1284.423828,288.352783 1274.290894,280.721497 1260.394653,280.655762 
	C1246.253296,280.588867 1235.777222,288.236786 1231.078125,302.482300 
	C1226.575928,316.131195 1226.598511,329.925415 1230.859253,344.476959 
z"/>
<path fill="#FCFCFC" opacity="1.000000" stroke="none" 
	d="
M687.733093,330.693115 
	C710.411560,299.275970 732.877747,268.148682 755.299072,237.083405 
	C724.182861,237.083405 692.481262,237.083405 660.423157,237.083405 
	C660.423157,227.972946 660.423157,219.066101 660.423157,209.746216 
	C705.118347,209.746216 749.971436,209.746216 795.402954,209.746216 
	C795.402954,216.500839 795.465210,223.283981 795.337463,230.063553 
	C795.317810,231.107513 794.573364,232.242569 793.913940,233.154541 
	C764.948242,273.213196 735.968506,313.261688 706.939331,353.274353 
	C704.443909,356.713898 701.598450,359.899506 698.580383,363.615784 
	C731.315857,363.615784 763.359375,363.615784 795.704224,363.615784 
	C795.704224,372.585815 795.704224,381.492523 795.704224,390.704315 
	C750.733826,390.704315 705.669983,390.704315 659.970703,390.704315 
	C659.970703,383.944733 659.857544,377.025940 660.071106,370.117279 
	C660.111328,368.816956 661.356018,367.486725 662.211365,366.289185 
	C670.627686,354.506073 679.079224,342.748077 687.733093,330.693115 
z"/>
<path fill="#A6F1CF" opacity="1.000000" stroke="none" 
	d="
M1623.446533,367.845154 
	C1632.501587,365.214722 1638.826660,359.996582 1642.321777,351.252747 
	C1651.929810,352.787018 1661.386353,354.297089 1671.234619,355.869751 
	C1668.288452,366.907928 1662.546509,375.564789 1653.638184,381.605225 
	C1631.406494,396.679718 1607.321167,398.104034 1583.259521,387.602356 
	C1560.047974,377.471710 1550.171631,357.355560 1548.011719,333.018127 
	C1546.650757,317.684753 1548.321289,302.742065 1555.090088,288.673431 
	C1567.085815,263.741486 1592.298950,251.056641 1621.566528,255.186935 
	C1648.377075,258.970490 1667.945801,278.458832 1671.911011,305.910980 
	C1673.140381,314.422699 1673.235107,323.098297 1673.895630,332.348450 
	C1641.852661,332.348450 1610.645386,332.348450 1579.460571,332.348450 
	C1578.768799,358.404999 1597.313843,371.508423 1619.112671,368.655396 
	C1620.432251,368.482666 1621.735107,368.181549 1623.446533,367.845154 
M1585.980103,291.578552 
	C1583.318848,297.723877 1580.657715,303.869171 1577.586670,310.960724 
	C1580.932373,310.960724 1582.572998,310.960724 1584.213745,310.960724 
	C1603.500610,310.960724 1622.787598,310.960724 1642.065674,310.960724 
	C1642.274902,297.833862 1634.401978,285.488495 1623.428955,281.338440 
	C1610.080444,276.289856 1595.802246,280.012146 1585.980103,291.578552 
z"/>
<path fill="#A6F1CF" opacity="1.000000" stroke="none" 
	d="
M1439.942871,369.003876 
	C1453.031982,368.499420 1462.911011,363.590271 1468.175049,351.246826 
	C1477.834595,352.803253 1487.299805,354.328369 1497.008057,355.892639 
	C1494.567993,365.007324 1490.051636,372.206940 1483.579468,378.215393 
	C1459.161255,400.884216 1412.138550,398.788544 1390.124268,373.901794 
	C1376.102173,358.050262 1372.381592,338.891174 1373.501221,318.490051 
	C1374.479370,300.667053 1379.804810,284.316071 1392.975342,271.672119 
	C1411.972656,253.434586 1434.781982,250.510880 1458.899292,258.192810 
	C1482.238525,265.626923 1494.052490,283.473267 1497.825562,306.894165 
	C1499.139526,315.050781 1498.993652,323.442566 1499.545288,332.213867 
	C1467.737305,332.213867 1436.658936,332.213867 1405.689697,332.213867 
	C1401.291870,350.731750 1417.956787,368.595306 1439.942871,369.003876 
M1416.192383,286.645264 
	C1409.159912,293.108368 1405.746704,301.185242 1404.985840,310.595154 
	C1426.318726,310.595154 1447.153320,310.595154 1468.307373,310.595154 
	C1466.828003,298.411102 1462.893066,287.834808 1451.512085,282.549194 
	C1439.541016,276.989502 1427.595703,277.944458 1416.192383,286.645264 
z"/>
<path fill="#A6F2CF" opacity="1.000000" stroke="none" 
	d="
M1733.178955,391.003723 
	C1731.211914,391.003723 1729.720703,391.003723 1727.864258,391.003723 
	C1727.864258,346.226532 1727.864258,301.675323 1727.864258,256.750092 
	C1737.774048,256.750092 1747.654175,256.750092 1758.078735,256.750092 
	C1758.078735,264.021515 1758.078735,271.200592 1758.078735,278.379639 
	C1762.461548,269.012543 1768.345337,261.565094 1777.915161,257.503815 
	C1786.053345,254.050003 1794.490356,254.693726 1803.353882,255.350311 
	C1803.353882,264.949829 1803.353882,274.325714 1803.353882,283.855133 
	C1798.605469,283.540314 1793.983154,282.991364 1789.358398,282.969940 
	C1771.134277,282.885559 1759.210083,294.500519 1759.068115,312.782623 
	C1758.881836,336.779480 1759.019653,360.778809 1759.018188,384.777100 
	C1759.018066,386.605743 1759.018188,388.434387 1759.018188,391.003723 
	C1750.490356,391.003723 1742.072632,391.003723 1733.178955,391.003723 
z"/>
<path fill="#2AE0DD" opacity="1.000000" stroke="none" 
	d="
M482.070404,304.186279 
	C481.801086,304.942719 481.531769,305.699158 480.764404,306.734741 
	C478.884918,307.814301 477.135834,308.311279 476.183014,309.465515 
	C470.916931,315.844849 464.009338,319.679688 456.632629,323.023956 
	C448.912201,326.524048 441.342102,330.362366 433.769958,334.179108 
	C431.328949,335.409515 428.638184,336.631287 426.867950,338.586853 
	C424.445038,341.263397 422.235748,341.350677 419.456879,339.722778 
	C438.115387,320.937561 456.806580,302.184692 475.423798,283.358673 
	C497.439301,261.096405 519.408875,238.788605 541.323181,216.426773 
	C542.574097,215.150314 543.145813,213.208282 544.033691,211.576019 
	C542.336731,211.162125 540.641785,210.398788 538.942444,210.388580 
	C522.616943,210.290283 506.290680,210.318985 489.656067,209.961670 
	C493.524536,206.285172 497.569000,202.770950 501.921173,199.691574 
	C505.324005,197.283859 506.480103,194.251038 506.000397,190.328888 
	C528.610718,190.265442 551.221008,190.169724 573.831299,190.167542 
	C578.036438,190.167145 581.330383,192.198410 582.722412,196.196503 
	C584.222534,200.504868 582.821777,204.127106 579.495911,207.418076 
	C553.504883,233.136215 527.622131,258.963745 501.029602,284.894470 
	C493.204865,286.782715 489.820740,293.076324 485.223328,297.825836 
	C483.655426,299.445618 483.092499,302.038177 482.070404,304.186279 
z"/>
<path fill="#1ED3E5" opacity="1.000000" stroke="none" 
	d="
M527.283569,355.894043 
	C534.254333,362.791565 541.343750,369.575165 548.136047,376.644135 
	C550.757568,379.372345 553.435852,380.464325 557.246765,380.510406 
	C571.190430,380.678772 580.746155,390.260071 580.127136,403.283142 
	C579.667725,412.949036 574.384277,419.611206 565.614319,422.952057 
	C557.462219,426.057526 549.296082,425.164612 542.922058,418.700592 
	C539.886108,415.621735 536.839050,414.816010 532.816101,414.822632 
	C486.850586,414.898071 440.884796,414.848267 394.469177,414.396545 
	C394.636963,412.851318 394.993835,411.407684 395.915833,410.687103 
	C400.927338,406.770416 403.304688,402.246552 400.459320,395.973694 
	C443.979919,395.871429 487.039307,395.876404 530.098572,395.799805 
	C532.130249,395.796204 534.160583,395.067841 536.191589,394.676971 
	C535.130859,392.945129 534.336365,390.958801 532.965149,389.523621 
	C525.399231,381.605194 517.692566,373.821259 510.293396,365.782166 
	C514.277039,359.144653 521.499207,358.762024 527.283569,355.894043 
z"/>
<path fill="#FBFBFB" opacity="1.000000" stroke="none" 
	d="
M853.183105,312.999878 
	C853.183105,294.022278 853.183105,275.544678 853.183105,256.721924 
	C863.728027,256.721924 873.970886,256.721924 884.551758,256.721924 
	C884.551758,301.309387 884.551758,345.858582 884.551758,390.709045 
	C874.339172,390.709045 864.087646,390.709045 853.183105,390.709045 
	C853.183105,365.019135 853.183105,339.259521 853.183105,312.999878 
z"/>
<path fill="#35E7D5" opacity="1.000000" stroke="none" 
	d="
M505.539062,190.242065 
	C506.480103,194.251038 505.324005,197.283859 501.921173,199.691574 
	C497.569000,202.770950 493.524536,206.285172 489.202698,209.870392 
	C487.194916,211.463882 485.105927,212.572021 483.502960,214.168228 
	C460.779999,236.795685 438.088867,259.455597 415.533936,282.250092 
	C414.169006,283.629456 413.307434,286.243256 413.410309,288.220337 
	C414.133270,302.118378 404.846405,312.165588 390.424652,311.724182 
	C391.827545,306.522583 393.548798,301.812988 395.509369,297.205200 
	C399.095886,288.776184 402.993073,280.472778 406.295166,271.936890 
	C406.747253,270.768250 404.529358,268.566711 403.547638,266.843384 
	C419.905670,250.121841 436.268433,233.404938 452.612946,216.670197 
	C453.951202,215.299973 455.165192,213.808365 456.219940,211.421555 
	C442.355713,209.897705 428.618103,210.530716 414.465332,209.782867 
	C416.362091,206.531052 418.883240,203.871658 421.017731,200.931580 
	C423.487976,197.529068 425.618073,193.879593 427.895813,190.337341 
	C453.623108,190.276642 479.350403,190.215958 505.539062,190.242065 
z"/>
<path fill="#26DCDF" opacity="1.000000" stroke="none" 
	d="
M399.998077,396.065002 
	C403.304688,402.246552 400.927338,406.770416 395.915833,410.687103 
	C394.993835,411.407684 394.636963,412.851318 394.009338,414.302490 
	C384.013153,414.713867 374.026276,414.740295 364.040894,414.876129 
	C360.212189,414.928192 357.043823,413.830658 355.483582,410.132202 
	C353.921478,406.429382 355.387390,403.301941 358.032013,400.642517 
	C365.427795,393.205322 372.835480,385.779755 380.268951,378.380249 
	C393.130249,365.577728 406.014587,352.798370 419.173096,339.866028 
	C422.235748,341.350677 424.445038,341.263397 426.867950,338.586853 
	C428.638184,336.631287 431.328949,335.409515 433.769958,334.179108 
	C441.342102,330.362366 448.912201,326.524048 456.632629,323.023956 
	C464.009338,319.679688 470.916931,315.844849 476.183014,309.465515 
	C477.135834,308.311279 478.884918,307.814301 480.633545,307.006897 
	C484.873505,311.558807 488.726868,316.134460 492.631775,320.665741 
	C493.703186,321.909088 494.928619,323.019684 495.889618,324.671570 
	C491.998779,329.599701 489.291107,335.514587 481.804047,334.316956 
	C481.308105,334.237610 480.626617,335.318115 479.728821,335.730316 
	C476.778076,333.083496 474.074249,330.621155 471.494598,328.035004 
	C467.288818,323.818573 463.178467,323.544159 458.980194,327.700928 
	C437.699188,348.771759 416.472961,369.898010 395.287750,391.065063 
	C394.187775,392.164062 393.641022,393.816742 392.597260,395.626923 
	C395.699921,395.810577 397.848999,395.937775 399.998077,396.065002 
z"/>
<path fill="#4FF2C5" opacity="1.000000" stroke="none" 
	d="
M369.987671,223.521866 
	C360.076599,223.043396 352.513611,216.964828 349.785950,207.285248 
	C347.231140,198.219025 350.633636,188.911636 358.433136,183.631210 
	C366.100494,178.440216 377.211365,178.843872 384.615967,184.657288 
	C385.911713,185.674606 386.993622,186.964355 387.979950,188.595306 
	C382.265015,192.693008 379.360352,198.121872 377.213989,204.148331 
	C374.901764,210.640564 372.404297,217.066818 369.987671,223.521866 
z"/>
<path fill="#FCFCFC" opacity="1.000000" stroke="none" 
	d="
M859.398315,234.772583 
	C851.114624,228.617004 848.605408,221.185669 851.891785,213.320007 
	C854.973328,205.944656 862.939941,201.609467 871.466675,202.668076 
	C880.148193,203.745865 886.445251,209.741470 887.507385,217.940735 
	C889.112000,230.328003 876.137817,240.322372 863.398560,236.482285 
	C862.134766,236.101349 860.946411,235.470322 859.398315,234.772583 
z"/>
<path fill="#43EECF" opacity="1.000000" stroke="none" 
	d="
M370.377136,223.623383 
	C372.404297,217.066818 374.901764,210.640564 377.213989,204.148331 
	C379.360352,198.121872 382.265015,192.693008 388.125488,188.907806 
	C390.310242,189.209824 392.150421,190.038452 394.000732,190.061813 
	C405.035828,190.201294 416.073303,190.154892 427.502869,190.254105 
	C425.618073,193.879593 423.487976,197.529068 421.017731,200.931580 
	C418.883240,203.871658 416.362091,206.531052 414.005646,209.682709 
	C407.359924,210.133698 400.708740,210.023727 394.088776,210.426849 
	C392.301605,210.535660 389.973999,211.767899 388.982513,213.224884 
	C384.545227,219.745621 378.663971,223.388107 370.377136,223.623383 
z"/>
<path fill="#40EACF" opacity="1.000000" stroke="none" 
	d="
M403.252014,266.991455 
	C404.529358,268.566711 406.747253,270.768250 406.295166,271.936890 
	C402.993073,280.472778 399.095886,288.776184 395.509369,297.205200 
	C393.548798,301.812988 391.827545,306.522583 389.996613,311.606964 
	C378.722870,311.395874 369.547119,300.969269 370.417664,289.781616 
	C371.322021,278.159729 382.001038,268.907318 393.432281,270.551605 
	C397.653229,271.158752 400.485718,270.257660 403.252014,266.991455 
z"/>
<path fill="#22D7E3" opacity="1.000000" stroke="none" 
	d="
M480.031464,335.859192 
	C480.626617,335.318115 481.308105,334.237610 481.804047,334.316956 
	C489.291107,335.514587 491.998779,329.599701 496.026611,324.984283 
	C506.561523,334.973145 516.765625,345.129700 527.126709,355.590149 
	C521.499207,358.762024 514.277039,359.144653 509.985535,365.649963 
	C499.622833,355.770935 489.827148,345.815063 480.031464,335.859192 
z"/>
<path fill="#26DCDF" opacity="1.000000" stroke="none" 
	d="
M482.380615,304.048157 
	C483.092499,302.038177 483.655426,299.445618 485.223328,297.825836 
	C489.820740,293.076324 493.204865,286.782715 500.730042,285.035400 
	C494.968140,291.329590 488.829498,297.619812 482.380615,304.048157 
z"/>
<path fill="#161616" opacity="1.000000" stroke="none" 
	d="
M1230.730713,344.098145 
	C1226.598511,329.925415 1226.575928,316.131195 1231.078125,302.482300 
	C1235.777222,288.236786 1246.253296,280.588867 1260.394653,280.655762 
	C1274.290894,280.721497 1284.423828,288.352783 1289.076782,302.554169 
	C1293.555908,316.225800 1293.636841,330.070312 1289.474609,343.789490 
	C1284.793457,359.218933 1274.684937,367.206970 1260.466064,367.331146 
	C1246.167358,367.455994 1236.073608,359.664429 1230.730713,344.098145 
z"/>
<path fill="#171717" opacity="1.000000" stroke="none" 
	d="
M1586.191406,291.284821 
	C1595.802246,280.012146 1610.080444,276.289856 1623.428955,281.338440 
	C1634.401978,285.488495 1642.274902,297.833862 1642.065674,310.960724 
	C1622.787598,310.960724 1603.500610,310.960724 1584.213745,310.960724 
	C1582.572998,310.960724 1580.932373,310.960724 1577.586670,310.960724 
	C1580.657715,303.869171 1583.318848,297.723877 1586.191406,291.284821 
z"/>
<path fill="#171817" opacity="1.000000" stroke="none" 
	d="
M1416.465210,286.412628 
	C1427.595703,277.944458 1439.541016,276.989502 1451.512085,282.549194 
	C1462.893066,287.834808 1466.828003,298.411102 1468.307373,310.595154 
	C1447.153320,310.595154 1426.318726,310.595154 1404.985840,310.595154 
	C1405.746704,301.185242 1409.159912,293.108368 1416.465210,286.412628 
z"/>
<path fill="#151717" opacity="1.000000" stroke="none" 
	d="
M479.728821,335.730316 
	C489.827148,345.815063 499.622833,355.770935 509.726379,365.858978 
	C517.692566,373.821259 525.399231,381.605194 532.965149,389.523621 
	C534.336365,390.958801 535.130859,392.945129 536.191589,394.676971 
	C534.160583,395.067841 532.130249,395.796204 530.098572,395.799805 
	C487.039307,395.876404 443.979919,395.871429 400.459320,395.973694 
	C397.848999,395.937775 395.699921,395.810577 392.597260,395.626923 
	C393.641022,393.816742 394.187775,392.164062 395.287750,391.065063 
	C416.472961,369.898010 437.699188,348.771759 458.980194,327.700928 
	C463.178467,323.544159 467.288818,323.818573 471.494598,328.035004 
	C474.074249,330.621155 476.778076,333.083496 479.728821,335.730316 
z"/>
</svg>