<?xml version="1.0" encoding="UTF-8"?>
<svg version="1.1" xmlns="http://www.w3.org/2000/svg" width="2000" height="2000">
<path d="M0 0 C660 0 1320 0 2000 0 C2000 660 2000 1320 2000 2000 C1340 2000 680 2000 0 2000 C0 1340 0 680 0 0 Z " fill="#141414" transform="translate(0,0)"/>
<path d="M0 0 C3.90956978 1.8914871 7.43909071 4.26638387 10.61328125 7.2421875 C10.61328125 7.9021875 10.61328125 8.5621875 10.61328125 9.2421875 C11.57242023 9.23942212 12.5315592 9.23665674 13.51976299 9.23380756 C36.84633362 9.16724017 60.17289195 9.11792508 83.49953747 9.08675098 C94.78008078 9.07127514 106.06056139 9.05017186 117.34106445 9.01586914 C127.17193544 8.98598881 137.00276102 8.96661772 146.83367616 8.95992202 C152.04017241 8.95600745 157.24653874 8.9467927 162.45299339 8.92499733 C167.35226836 8.90465381 172.25135972 8.8983494 177.15067291 8.90286446 C178.94980936 8.9020383 180.74895188 8.89605997 182.54805183 8.88457108 C185.00318262 8.86966026 187.45761887 8.87322855 189.9127655 8.88142395 C190.62580863 8.87268543 191.33885175 8.8639469 192.07350224 8.85494357 C197.60416074 8.90489506 200.74682044 10.37572669 204.61328125 14.2421875 C205.52569384 17.39822668 205.40288025 20.06500645 204.61328125 23.2421875 C202.00262236 27.13454078 198.7040622 30.2271293 195.32592773 33.45605469 C194.32727189 34.44233801 193.33063757 35.43067177 192.33587646 36.42088318 C190.1959456 38.54257968 188.04271614 40.64939459 185.87792778 42.74571991 C182.45645055 46.05959896 179.06817515 49.4061175 175.68385315 52.75787354 C169.11056946 59.25886738 162.5039313 65.72536073 155.89395142 72.18900299 C147.47294473 80.42732471 139.06886176 88.68272484 130.69152123 96.96544957 C127.3219036 100.2948574 123.93718844 103.60788305 120.53981197 106.90895128 C118.43292125 108.96162389 116.33830016 111.02648442 114.24671936 113.09474373 C112.80740136 114.51033346 111.35309044 115.9106278 109.89845276 117.31047058 C109.04999786 118.15416702 108.20154297 118.99786346 107.32737732 119.86712646 C106.20878153 120.95989206 106.20878153 120.95989206 105.06758785 122.07473373 C103.33316654 124.17817146 103.33316654 124.17817146 103.80964184 126.90717602 C104.67065046 129.40887639 105.52550776 130.72668925 107.31396484 132.66040039 C108.2673172 133.6964592 108.2673172 133.6964592 109.2399292 134.75344849 C110.02313538 135.57473236 110.80634155 136.39601624 111.61328125 137.2421875 C112.07831306 137.73231701 112.54334488 138.22244652 113.02246857 138.72742844 C120.51073353 146.60772853 128.13339597 154.35866349 135.76603127 162.09881496 C139.37072544 165.75503939 142.962766 169.42203336 146.52783203 173.11694336 C149.99769806 176.71260198 153.49647332 180.27764758 157.01716232 183.82353401 C158.34563387 185.17154476 159.66371831 186.52988033 160.97060013 187.89883232 C169.30663376 196.99763529 169.30663376 196.99763529 180.74755859 200.44555664 C181.77102386 200.3929921 182.79448914 200.34042755 183.84896851 200.28627014 C188.39220242 200.21381895 191.31224815 202.3012671 194.61328125 205.2421875 C199.36716036 209.99606661 201.73941808 213.48155872 201.92578125 220.3671875 C201.85066972 226.67655603 200.49054632 232.00930539 196.22265625 236.8046875 C189.56496051 242.69149215 183.52269545 243.78821139 174.90234375 243.59765625 C170.49399987 243.12122003 168.80196081 242.26304182 165.61328125 239.2421875 C165.05446479 238.54579131 164.49564833 237.84939512 163.91989803 237.13189602 C160.68401451 234.4808806 158.48393324 234.74800441 154.33241272 234.7568512 C153.59748342 234.75287777 152.86255413 234.74890435 152.10535425 234.74481052 C149.64155846 234.73621584 147.17880882 234.75605524 144.71508789 234.77563477 C142.94923256 234.77508609 141.18337698 234.77271176 139.41752625 234.76864624 C135.61421782 234.7634666 131.81119739 234.77055131 128.00792122 234.78689766 C121.99505764 234.81198052 115.98247953 234.80574185 109.96958923 234.79441833 C95.03456496 234.77119991 80.09962256 234.78965618 65.16461182 234.81591797 C53.55865697 234.83585309 41.95292941 234.84446204 30.34697431 234.81898159 C24.36865858 234.80715283 18.39098947 234.81884969 12.41274083 234.8482343 C8.69437593 234.86148057 4.97626241 234.85407758 1.25790596 234.84095383 C-0.46705904 234.8390957 -2.19205778 234.84582719 -3.91695023 234.86175728 C-6.27160893 234.88231708 -8.6242297 234.87219837 -10.97886658 234.85450745 C-12.29644423 234.85693734 -13.61402189 234.85936724 -14.97152615 234.86187077 C-19.32574328 234.07180244 -20.82167899 232.81425045 -23.38671875 229.2421875 C-23.99689478 225.73834789 -23.90625745 224.06092324 -21.99538612 221.0496006 C-20.96472306 219.98545465 -20.96472306 219.98545465 -19.91323853 218.89981079 C-19.08340076 218.03276142 -18.253563 217.16571205 -17.39857864 216.27238846 C-16.39577371 215.26118135 -15.39173047 214.25120137 -14.38671875 213.2421875 C-13.21642482 212.05041371 -12.046401 210.85837464 -10.87659836 209.66611862 C-6.59763265 205.32492547 -2.2799294 201.02299745 2.03759766 196.72021484 C3.69279438 195.06694012 5.34776149 193.41343548 7.0025177 191.75971985 C10.54991245 188.21547237 14.09885135 184.67278113 17.64900589 181.13129807 C22.78987075 176.00286189 27.92762849 170.87132334 33.06442492 165.7388124 C41.41195602 157.39832845 49.76135417 149.05971644 58.11230469 140.72265625 C58.6107929 140.22499585 59.10928111 139.72733545 59.62287502 139.21459444 C63.16129421 135.68207582 66.69978053 132.14962445 70.23828125 128.6171875 C74.28390166 124.57849809 78.32949 120.53977657 82.375 116.50097656 C83.12271988 115.75449887 83.12271988 115.75449887 83.88554521 114.99294083 C92.21019112 106.68200167 100.53285725 98.36908263 108.85412538 90.05476153 C114.43049237 84.48336697 120.00928619 78.91441754 125.58996987 73.34734702 C129.06299707 69.88179388 132.53393801 66.41415697 136.00432396 62.94595909 C137.60983579 61.34231463 139.21620953 59.73953254 140.82352257 58.13769341 C143.02340789 55.94506281 145.22014471 53.74932336 147.41616821 51.55282593 C148.36273015 50.61165643 148.36273015 50.61165643 149.32841456 49.6514734 C153.06351591 45.90777467 156.60068562 42.04393116 160.04208601 38.02814162 C161.61328125 36.2421875 161.61328125 36.2421875 163.31563628 34.69652593 C164.94616472 33.19395728 164.94616472 33.19395728 164.61328125 30.2421875 C146.91113667 24.92286944 125.81925141 21.7849194 108.61328125 30.2421875 C93.43180148 39.51404456 80.92308551 53.21418953 68.67578125 65.9296875 C67.44135725 67.19939959 67.44135725 67.19939959 66.18199539 68.49476242 C60.59697442 74.24669173 55.12039947 80.08684693 49.7109375 86.00390625 C48.99224991 86.77800087 48.27356232 87.55209549 47.53309631 88.34964752 C38.1618034 98.07516444 38.1618034 98.07516444 34.29858398 110.60864258 C34.38533806 112.4874166 34.4867497 114.36567269 34.61328125 116.2421875 C32.60140966 122.63283843 27.31225938 126.92065311 21.74609375 130.4140625 C16.22755638 132.5567913 9.3258625 132.37568687 3.90234375 130.109375 C-1.73016303 126.5352594 -5.25936522 122.6242481 -7.38671875 116.2421875 C-8.33887343 103.55289535 -8.33887343 103.55289535 -4.38671875 98.2421875 C0.90637599 92.73877112 5.36005002 89.46604178 13.17578125 89.0546875 C16.10968613 89.21471868 18.764382 89.55154526 21.61328125 90.2421875 C21.61328125 89.5821875 21.61328125 88.9221875 21.61328125 88.2421875 C23.02106458 87.07475742 24.43270906 85.91173969 25.86106873 84.76957703 C27.67675474 83.18685817 29.16297155 81.52271962 30.71118164 79.67895508 C35.05152602 74.65433472 39.75284437 70.03231275 44.484375 65.37890625 C45.89325376 63.9830572 47.30212402 62.58719943 48.71047306 61.19081593 C52.1524382 57.77921969 55.5995279 54.37286188 59.0534668 50.97338867 C61.0054801 49.05167874 62.95349882 47.12608354 64.89723206 45.19599915 C66.7217892 43.38462657 68.55231796 41.57924581 70.38926697 39.78044128 C71.20754471 38.96561783 72.02582245 38.15079437 72.86889648 37.3112793 C73.59390854 36.59594528 74.31892059 35.88061127 75.06590271 35.14360046 C76.92888221 33.26295814 76.92888221 33.26295814 76.61328125 30.2421875 C55.16328125 29.9121875 33.71328125 29.5821875 11.61328125 29.2421875 C10.95328125 30.8921875 10.29328125 32.5421875 9.61328125 34.2421875 C4.44592693 40.04964202 -0.51168156 42.8671839 -8.26171875 43.6171875 C-13.74804122 43.43919612 -18.08458106 41.34165393 -22.1171875 37.6640625 C-27.73899585 31.50089483 -30.0525232 25.29884389 -29.80078125 16.95703125 C-28.91784438 11.16796404 -25.6391916 7.14416119 -21.32421875 3.3671875 C-14.79850044 -1.35354489 -7.86481211 -2.49717439 0 0 Z " fill="#2CDFDB" transform="translate(377.38671875,879.7578125)"/>
<path d="M0 0 C0.9384375 -0.01611328 1.876875 -0.03222656 2.84375 -0.04882812 C15.57804505 -0.05762253 28.0382553 4.67875847 37.5 13.3671875 C52.36616664 29.89252452 56.47606449 47.952359 56.5625 69.625 C56.56805908 70.80505615 56.57361816 71.9851123 56.5793457 73.20092773 C56.42582741 91.87636231 51.54752516 110.38964323 38.4296875 124.25 C27.36915117 134.71588384 15.47602436 138.72273396 0.5 138.875 C-0.45801514 138.88974365 -1.41603027 138.9044873 -2.40307617 138.91967773 C-13.73926103 138.75643354 -22.84822841 134.34231792 -30.73046875 126.2890625 C-33.67599716 123.02165161 -35.76174469 120.28901062 -37.75 116.3125 C-38.08 139.7425 -38.41 163.1725 -38.75 187.3125 C-49.31 187.3125 -59.87 187.3125 -70.75 187.3125 C-70.75 125.9325 -70.75 64.5525 -70.75 1.3125 C-60.52 1.3125 -50.29 1.3125 -39.75 1.3125 C-39.75 8.5725 -39.75 15.8325 -39.75 23.3125 C-39.09 23.3125 -38.43 23.3125 -37.75 23.3125 C-37.5025 22.58933594 -37.255 21.86617187 -37 21.12109375 C-32.6909884 11.43928332 -23.54535774 5.25076018 -14.12109375 1.17578125 C-9.39076294 -0.03557809 -4.86367301 -0.01643133 0 0 Z " fill="#A5F0CD" transform="translate(1266.75,953.6875)"/>
<path d="M0 0 C8.16930567 5.94875048 13.38912956 12.65042476 17 22 C17.70962891 20.948125 17.70962891 20.948125 18.43359375 19.875 C26.26677912 8.63674574 35.69798507 -0.82274186 49.625 -3.71484375 C62.96561189 -5.31659485 75.86129919 -3.84490206 86.9375 4.23828125 C96.88564652 12.73565641 101.24667197 21.21159892 103 34 C103.2382524 37.45091993 103.25510984 40.87862697 103.22705078 44.33666992 C103.22734283 45.3038797 103.22763489 46.27108948 103.22793579 47.26760864 C103.22655735 50.42199094 103.21106703 53.57612841 103.1953125 56.73046875 C103.19157707 58.93435029 103.18873261 61.13823351 103.18673706 63.34211731 C103.1791423 69.11077552 103.15952994 74.8793312 103.1373291 80.64794922 C103.11678065 86.54718642 103.10771618 92.44644037 103.09765625 98.34570312 C103.07627977 109.89718745 103.04113194 121.44856911 103 133 C92.77 133 82.54 133 72 133 C71.9906543 130.26017822 71.98130859 127.52035645 71.97167969 124.69750977 C71.93784775 115.62499687 71.88226414 106.55270994 71.81609726 97.48037815 C71.77666028 91.98210554 71.74445315 86.48399219 71.72900391 80.9855957 C71.7138126 75.67506597 71.67932272 70.36497417 71.63169098 65.05463982 C71.61690275 63.03299716 71.60896046 61.01129198 71.60811615 58.98959541 C71.60573705 56.14827412 71.57858162 53.30815387 71.54589844 50.46704102 C71.5509288 49.63913055 71.55595917 48.81122009 71.56114197 47.95822144 C71.43069163 40.58402383 69.39341108 34.5022025 64.25 29.125 C57.44048759 24.6726265 51.16113104 22.91513666 43 24 C36.81096014 25.5335674 32.33368526 27.9080333 28.25390625 32.828125 C24.5521762 39.23984433 23.55480799 44.90952883 23.56762695 52.16992188 C23.5574353 53.04891144 23.54724365 53.927901 23.53674316 54.83352661 C23.50677314 57.71200059 23.49737179 60.59014093 23.48828125 63.46875 C23.4714227 65.47514946 23.45327088 67.48153842 23.43388367 69.48791504 C23.38650536 74.74854251 23.35661732 80.00912745 23.33044434 85.26989746 C23.30057732 90.64616288 23.25406812 96.02228196 23.20898438 101.3984375 C23.1230896 111.93223169 23.05722245 122.46601099 23 133 C13.1 133 3.2 133 -7 133 C-7.0093457 130.26017822 -7.01869141 127.52035645 -7.02832031 124.69750977 C-7.06215225 115.62499687 -7.11773586 106.55270994 -7.18390274 97.48037815 C-7.22333972 91.98210554 -7.25554685 86.48399219 -7.27099609 80.9855957 C-7.2861874 75.67506597 -7.32067728 70.36497417 -7.36830902 65.05463982 C-7.38309725 63.03299716 -7.39103954 61.01129198 -7.39188385 58.98959541 C-7.39426295 56.14827412 -7.42141838 53.30815387 -7.45410156 50.46704102 C-7.4490712 49.63913055 -7.44404083 48.81122009 -7.43885803 47.95822144 C-7.55650258 41.30791932 -9.17545236 35.1812576 -13.67657852 30.11168766 C-19.62509876 24.478548 -26.31828616 23.51966638 -34.28515625 23.68359375 C-40.92328225 24.45724584 -45.76367511 27.93994527 -50 33 C-54.60380116 39.7657213 -55.14798555 45.62733984 -55.20532227 53.64575195 C-55.21522186 54.5047963 -55.22512146 55.36384064 -55.23532104 56.24891663 C-55.26682213 59.07867713 -55.29164832 61.90845439 -55.31640625 64.73828125 C-55.33698562 66.70412117 -55.35798235 68.66995677 -55.37937927 70.63578796 C-55.43449842 75.80274952 -55.48395241 80.96975034 -55.53222656 86.13677979 C-55.58251584 91.41218549 -55.6381631 96.68753438 -55.69335938 101.96289062 C-55.80081671 112.30854695 -55.90179386 122.65425171 -56 133 C-66.56 133 -77.12 133 -88 133 C-88 88.45 -88 43.9 -88 -2 C-77.77 -2 -67.54 -2 -57 -2 C-56.67 5.26 -56.34 12.52 -56 20 C-55.05125 18.35 -54.1025 16.7 -53.125 15 C-46.87620077 5.25036746 -39.04330547 0.12246816 -28 -3 C-27.03900391 -3.28617188 -27.03900391 -3.28617188 -26.05859375 -3.578125 C-17.13944354 -5.40595844 -7.9671531 -4.40258979 0 0 Z " fill="#FCFCFC" transform="translate(1032,957)"/>
<path d="M0 0 C44.88 0 89.76 0 136 0 C136 25.18077693 136 25.18077693 126.7109375 35.63671875 C123.01015423 39.93306364 119.71307212 44.43781187 116.4375 49.0625 C115.35384926 50.56451298 114.26921843 52.06581937 113.18359375 53.56640625 C109.5945419 58.5522311 106.0577069 63.57422458 102.52368164 68.59912109 C98.30139238 74.59406361 94.01498685 80.54121227 89.71484375 86.48046875 C86.46049102 90.97568978 83.2203371 95.48035546 80 100 C72.03041844 111.17205219 64.04469129 122.33175384 55.8125 133.3125 C55.37437988 133.89692871 54.93625977 134.48135742 54.48486328 135.08349609 C49.70680146 141.42813557 44.84318384 147.70386101 40 154 C71.68 154 103.36 154 136 154 C136 163.24 136 172.48 136 182 C91.12 182 46.24 182 0 182 C0 156.80495842 0 156.80495842 8.51171875 147.140625 C12.10153515 142.93194391 15.30146718 138.50954952 18.5 134 C19.59252552 132.4886974 20.6862724 130.97827696 21.78125 129.46875 C24.88688051 125.16864622 27.94892395 120.83891689 31 116.5 C37.7921047 106.84476537 44.71820213 97.28794068 51.64550781 87.72949219 C53.28532951 85.46609005 54.9242153 83.20201486 56.5625 80.9375 C57.09907227 80.19612793 57.63564453 79.45475586 58.18847656 78.69091797 C61.38293175 74.26790041 64.53972994 69.82064749 67.67041016 65.35229492 C75.41958512 54.29469363 83.55649499 43.63021853 92.1875 33.2421875 C94.11122566 30.93248977 94.11122566 30.93248977 96 28 C64.32 28 32.64 28 0 28 C0 18.76 0 9.52 0 0 Z " fill="#FBFBFB" transform="translate(659,908)"/>
<path d="M0 0 C14.42426229 9.95295594 22.2876451 23.10714786 26.62109375 39.80859375 C27.98897939 49.3837932 27.62109375 59.13618166 27.62109375 68.80859375 C-3.39890625 68.80859375 -34.41890625 68.80859375 -66.37890625 68.80859375 C-63.42865323 86.65283468 -63.42865323 86.65283468 -52.5859375 99.30078125 C-43.97318296 105.1848932 -34.55320966 106.19936259 -24.37890625 104.80859375 C-16.0805391 102.76924418 -10.05383736 99.04036421 -5.37890625 91.80859375 C-4.88390625 90.32359375 -4.88390625 90.32359375 -4.37890625 88.80859375 C5.95566126 87.97253885 15.63305977 90.49012783 25.62109375 92.80859375 C23.32714433 100.14923188 20.72683398 106.02618916 15.62109375 111.80859375 C15.09644531 112.41445312 14.57179688 113.0203125 14.03125 113.64453125 C2.91264605 125.6264621 -12.93387005 130.26777952 -28.8359375 131.06640625 C-46.00784414 131.62930495 -62.4321008 128.03548602 -75.69140625 116.43359375 C-77.27234113 114.91083728 -78.83620671 113.37007398 -80.37890625 111.80859375 C-81.02730469 111.18210937 -81.67570312 110.555625 -82.34375 109.91015625 C-87.67955425 104.37586476 -90.5154997 97.87108124 -93.37890625 90.80859375 C-93.69859375 90.02355469 -94.01828125 89.23851562 -94.34765625 88.4296875 C-101.38453347 69.32456584 -100.44302576 45.5181258 -91.94995117 27.03076172 C-83.30081993 9.56042479 -70.12689514 -0.71865857 -52.13671875 -7.39453125 C-34.98940928 -11.03075904 -15.13867354 -9.02022004 0 0 Z " fill="#A5F1CE" transform="translate(1470.37890625,962.19140625)"/>
<path d="M0 0 C1.41732422 0.70189453 1.41732422 0.70189453 2.86328125 1.41796875 C17.34695013 9.26420516 25.56051939 23.0275089 30.30859375 38.37890625 C33.35039752 49.91026403 32 56.74558025 32 71 C0.98 71 -30.04 71 -62 71 C-60.05162032 83.66446793 -58.35995626 93.57912638 -48.0078125 101.66796875 C-39.42666704 107.36090767 -29.22878857 108.01957526 -19.23046875 106.609375 C-11.87251458 105.00400318 -6.95785687 101.63956219 -2 96 C-1.5875 95.08992188 -1.175 94.17984375 -0.75 93.2421875 C-0.1725 92.50226563 0.405 91.76234375 1 91 C7.36071199 90.26170307 13.70067277 91.53555128 20 92.5 C20.96550781 92.64308594 21.93101563 92.78617188 22.92578125 92.93359375 C25.28467335 93.28392426 27.64264545 93.6394935 30 94 C28.63029896 101.29684279 26.48948979 106.07027289 22 112 C21.2575 113.03125 20.515 114.0625 19.75 115.125 C7.9581862 127.45280533 -8.91453568 132.87779321 -25.63916016 133.40454102 C-43.85165011 133.62394902 -60.37448535 129.04178644 -73.83691406 116.30810547 C-89.01425689 101.28728214 -93.2570084 82.7593225 -93.4375 62.0625 C-93.33016742 42.2887347 -88.38589452 24.64352636 -74.34375 10.14453125 C-54.53091442 -7.98421331 -23.9693252 -12.69994697 0 0 Z " fill="#A5F0CE" transform="translate(1640,960)"/>
<path d="M0 0 C0 9.57 0 19.14 0 29 C-3.5475 28.87625 -7.095 28.7525 -10.75 28.625 C-21.15986876 28.48474072 -28.66519279 29.37226694 -36.71484375 36.5234375 C-43.13451457 43.55716379 -44.13706763 51.17687086 -44.20532227 60.27856445 C-44.21522186 61.09859451 -44.22512146 61.91862457 -44.23532104 62.76350403 C-44.26680953 65.46340079 -44.29164327 68.16331513 -44.31640625 70.86328125 C-44.33698671 72.73944038 -44.35798347 74.61559499 -44.37937927 76.491745 C-44.43448715 81.4219699 -44.48394607 86.35223587 -44.53222656 91.28253174 C-44.58252411 96.31664673 -44.63816704 101.35070234 -44.69335938 106.38476562 C-44.80080291 116.25646149 -44.90178421 126.12820801 -45 136 C-55.56 136 -66.12 136 -77 136 C-77 91.45 -77 46.9 -77 1 C-66.77 1 -56.54 1 -46 1 C-45.67 8.26 -45.34 15.52 -45 23 C-44.34 21.515 -43.68 20.03 -43 18.5 C-38.87850167 10.36061642 -33.02755504 4.4272748 -24.5625 0.83203125 C-16.53079356 -1.04379492 -8.17846693 -0.26046073 0 0 Z " fill="#A4EECC" transform="translate(1803,954)"/>
<path d="M0 0 C3.91797051 1.18011552 6.35942812 3.94028574 9.12509155 6.83697891 C10.12170807 7.83184311 10.12170807 7.83184311 11.13845825 8.84680557 C13.32213096 11.03603614 15.47612682 13.25219076 17.63095093 15.46979141 C19.14234006 16.99610686 20.65550941 18.52066137 22.17037964 20.04352188 C26.14695759 24.05060125 30.09892513 28.08112116 34.04623413 32.11700821 C38.08070916 36.23341387 42.13801187 40.32718143 46.19345093 44.42291641 C54.14303432 52.45822118 62.06680087 60.51847565 69.97470093 68.59479141 C69.64470093 69.58479141 69.31470093 70.57479141 68.97470093 71.59479141 C22.11470093 71.59479141 -24.74529907 71.59479141 -73.02529907 71.59479141 C-73.02529907 66.95650768 -71.97235209 66.05138357 -68.86225891 62.8452034 C-68.24832779 62.23308502 -67.63439667 61.62096664 -67.00186157 60.99029922 C-66.36122269 60.33622589 -65.7205838 59.68215256 -65.06053162 59.00825882 C-62.934393 56.84405062 -60.79340384 54.69531697 -58.65029907 52.54791641 C-57.16700693 51.05177476 -55.68401943 49.55533102 -54.20132446 48.05859756 C-51.0877628 44.92106212 -47.96601744 41.79193164 -44.83926392 38.66754532 C-40.83499711 34.66368478 -36.85893272 30.63304232 -32.88949585 26.59468842 C-29.83363553 23.49433555 -26.75974792 20.41235285 -23.68051147 17.33523178 C-22.20687655 15.85687705 -20.7397228 14.37203225 -19.27926636 12.8806572 C-17.23265466 10.79481882 -15.16219614 8.73590251 -13.08389282 6.68170547 C-12.48615555 6.06149017 -11.88841827 5.44127487 -11.27256775 4.80226517 C-7.75338921 1.38581837 -5.02870253 -0.43521251 0 0 Z " fill="#151616" transform="translate(466.0252990722656,1023.4052085876465)"/>
<path d="M0 0 C0.5259375 0.39058594 1.051875 0.78117188 1.59375 1.18359375 C2.625 1.88484375 3.65625 2.58609375 4.71875 3.30859375 C13.25158649 11.00442176 16.0300695 21.7894899 16.77392578 32.86669922 C17.29642683 44.01526111 17.73028514 54.97788787 12.59375 65.18359375 C12.23152344 65.92351562 11.86929687 66.6634375 11.49609375 67.42578125 C7.48988761 74.62337195 1.19063293 80.0603287 -6.40625 83.18359375 C-9.09711806 83.49602718 -11.47683755 83.66180261 -14.15625 83.62109375 C-14.85999756 83.61279541 -15.56374512 83.60449707 -16.28881836 83.59594727 C-24.12347983 83.34350605 -30.32834909 81.38260996 -36.21875 76.05859375 C-44.63914974 66.76643498 -47.97956399 54.20842753 -47.78125 41.93359375 C-47.7671106 40.56605957 -47.7671106 40.56605957 -47.75268555 39.17089844 C-47.46227898 26.05053783 -45.24430914 14.07295559 -35.90625 4.30859375 C-27.16915851 -3.86115414 -10.58131364 -6.70613957 0 0 Z " fill="#151615" transform="translate(1274.40625,982.81640625)"/>
<path d="M0 0 C10.56 0 21.12 0 32 0 C32 44.55 32 89.1 32 135 C21.44 135 10.88 135 0 135 C0 90.45 0 45.9 0 0 Z " fill="#FAFAFA" transform="translate(852,955)"/>
<path d="M0 0 C5.98424061 4.69988708 10.68076259 12.41423969 12.25 19.875 C12.25 22.185 12.25 24.495 12.25 26.875 C-8.54 26.875 -29.33 26.875 -50.75 26.875 C-50.75 18.01524388 -47.59775409 9.83674148 -41.4140625 3.3359375 C-29.75447706 -6.90041216 -13.24517044 -8.39441723 0 0 Z " fill="#171817" transform="translate(1454.75,983.125)"/>
<path d="M0 0 C5.19028848 3.94416195 8.73277922 9.70241807 10.8984375 15.78515625 C11.3934375 21.23015625 11.3934375 21.23015625 11.8984375 26.78515625 C-8.8915625 26.78515625 -29.6815625 26.78515625 -51.1015625 26.78515625 C-49.5149213 15.67866782 -46.15918253 7.731065 -37.36328125 0.3984375 C-25.81606469 -7.83817811 -12.04212948 -6.96115663 0 0 Z " fill="#161717" transform="translate(1629.1015625,983.21484375)"/>
<path d="M0 0 C8.10008108 6.12445155 8.10008108 6.12445155 9.078125 12.07421875 C9.23866045 17.10241848 9.03875167 20.8934098 6.9375 25.5 C2.04941267 30.51672121 -2.585796 33.04703528 -9.5625 33.375 C-15.89002047 33.31625644 -19.85347567 31.20606459 -24.4375 26.9375 C-27.84699593 22.49482348 -27.9514158 17.99742924 -27.7890625 12.55859375 C-27.11198755 7.51062384 -24.50630325 4.87906477 -20.8125 1.625 C-14.87156399 -2.59619138 -6.80245385 -2.10257664 0 0 Z " fill="#FCFCFC" transform="translate(877.4375,903.0625)"/>
</svg>
